<svg xmlns="http://www.w3.org/2000/svg" xmlns:xlink="http://www.w3.org/1999/xlink" width="1920" zoomAndPan="magnify" viewBox="0 0 1440 225" height="300" preserveAspectRatio="xMidYMid meet" version="1.0"><defs><g/><clipPath id="f0472167b8"><path d="M 67.703125 7.285156 L 280.703125 7.285156 L 280.703125 220.285156 L 67.703125 220.285156 Z M 67.703125 7.285156 " clip-rule="nonzero"/></clipPath></defs><g clip-path="url(#f0472167b8)"><path fill="#ffffff" d="M 174.253906 7.285156 C 115.355469 7.285156 67.703125 54.992188 67.703125 113.890625 C 67.703125 172.789062 115.355469 220.496094 174.253906 220.496094 C 233.15625 220.496094 280.914062 172.789062 280.914062 113.890625 C 280.914062 54.992188 233.15625 7.285156 174.253906 7.285156 Z M 174.308594 199.175781 C 127.1875 199.175781 89.023438 161.011719 89.023438 113.890625 C 89.023438 66.773438 127.1875 28.605469 174.308594 28.605469 C 221.429688 28.605469 259.59375 66.773438 259.59375 113.890625 C 259.59375 161.011719 221.429688 199.175781 174.308594 199.175781 Z M 174.308594 199.175781 " fill-opacity="1" fill-rule="nonzero"/></g><path fill="#ffffff" d="M 179.640625 60.589844 L 163.648438 60.589844 L 163.648438 124.550781 L 219.5625 158.132812 L 227.613281 145.019531 L 179.640625 116.554688 Z M 179.640625 60.589844 " fill-opacity="1" fill-rule="nonzero"/><g fill="#ffffff" fill-opacity="1"><g transform="translate(294.16525, 159.460458)"><g><path d="M 63.84375 -92.984375 C 74.125 -92.984375 82.429688 -88.984375 88.765625 -80.984375 C 95.109375 -72.984375 98.28125 -61.253906 98.28125 -45.796875 C 98.28125 -35.453125 96.785156 -26.753906 93.796875 -19.703125 C 90.804688 -12.660156 86.671875 -7.34375 81.390625 -3.75 C 76.109375 -0.164062 70.039062 1.625 63.1875 1.625 C 58.78125 1.625 55 1.066406 51.84375 -0.046875 C 48.6875 -1.160156 45.988281 -2.597656 43.75 -4.359375 C 41.519531 -6.128906 39.585938 -8.023438 37.953125 -10.046875 L 36.65625 -10.046875 C 37.09375 -7.867188 37.414062 -5.632812 37.625 -3.34375 C 37.84375 -1.0625 37.953125 1.164062 37.953125 3.34375 L 37.953125 40.171875 L 13.0625 40.171875 L 13.0625 -91.265625 L 33.3125 -91.265625 L 36.8125 -79.4375 L 37.953125 -79.4375 C 39.585938 -81.882812 41.570312 -84.140625 43.90625 -86.203125 C 46.25 -88.273438 49.066406 -89.921875 52.359375 -91.140625 C 55.660156 -92.367188 59.488281 -92.984375 63.84375 -92.984375 Z M 55.84375 -73.0625 C 51.488281 -73.0625 48.03125 -72.160156 45.46875 -70.359375 C 42.914062 -68.566406 41.050781 -65.875 39.875 -62.28125 C 38.707031 -58.695312 38.066406 -54.15625 37.953125 -48.65625 L 37.953125 -45.953125 C 37.953125 -40.078125 38.507812 -35.097656 39.625 -31.015625 C 40.75 -26.941406 42.628906 -23.84375 45.265625 -21.71875 C 47.898438 -19.59375 51.535156 -18.53125 56.171875 -18.53125 C 59.972656 -18.53125 63.097656 -19.59375 65.546875 -21.71875 C 67.992188 -23.84375 69.832031 -26.957031 71.0625 -31.0625 C 72.289062 -35.164062 72.90625 -40.1875 72.90625 -46.125 C 72.90625 -55.050781 71.515625 -61.769531 68.734375 -66.28125 C 65.960938 -70.800781 61.664062 -73.0625 55.84375 -73.0625 Z M 55.84375 -73.0625 "/></g></g></g><g fill="#ffffff" fill-opacity="1"><g transform="translate(399.959528, 159.460458)"><g><path d="M 64 -92.984375 C 65.25 -92.984375 66.703125 -92.914062 68.359375 -92.78125 C 70.023438 -92.644531 71.375 -92.46875 72.40625 -92.25 L 70.53125 -68.90625 C 69.71875 -69.175781 68.5625 -69.378906 67.0625 -69.515625 C 65.5625 -69.648438 64.269531 -69.71875 63.1875 -69.71875 C 59.976562 -69.71875 56.863281 -69.304688 53.84375 -68.484375 C 50.820312 -67.671875 48.113281 -66.351562 45.71875 -64.53125 C 43.320312 -62.707031 41.425781 -60.3125 40.03125 -57.34375 C 38.644531 -54.382812 37.953125 -50.753906 37.953125 -46.453125 L 37.953125 0 L 13.0625 0 L 13.0625 -91.265625 L 31.921875 -91.265625 L 35.59375 -75.921875 L 36.8125 -75.921875 C 38.613281 -79.023438 40.859375 -81.867188 43.546875 -84.453125 C 46.242188 -87.035156 49.316406 -89.101562 52.765625 -90.65625 C 56.222656 -92.207031 59.96875 -92.984375 64 -92.984375 Z M 64 -92.984375 "/></g></g></g><g fill="#ffffff" fill-opacity="1"><g transform="translate(475.876718, 159.460458)"><g><path d="M 96 -45.796875 C 96 -38.179688 94.976562 -31.429688 92.9375 -25.546875 C 90.894531 -19.671875 87.925781 -14.707031 84.03125 -10.65625 C 80.144531 -6.601562 75.46875 -3.539062 70 -1.46875 C 64.53125 0.59375 58.367188 1.625 51.515625 1.625 C 45.085938 1.625 39.191406 0.59375 33.828125 -1.46875 C 28.472656 -3.539062 23.820312 -6.601562 19.875 -10.65625 C 15.925781 -14.707031 12.878906 -19.671875 10.734375 -25.546875 C 8.585938 -31.429688 7.515625 -38.179688 7.515625 -45.796875 C 7.515625 -55.921875 9.304688 -64.492188 12.890625 -71.515625 C 16.484375 -78.535156 21.597656 -83.867188 28.234375 -87.515625 C 34.878906 -91.160156 42.800781 -92.984375 52 -92.984375 C 60.539062 -92.984375 68.117188 -91.160156 74.734375 -87.515625 C 81.347656 -83.867188 86.546875 -78.535156 90.328125 -71.515625 C 94.109375 -64.492188 96 -55.921875 96 -45.796875 Z M 32.90625 -45.796875 C 32.90625 -39.804688 33.554688 -34.769531 34.859375 -30.6875 C 36.160156 -26.613281 38.195312 -23.539062 40.96875 -21.46875 C 43.75 -19.40625 47.375 -18.375 51.84375 -18.375 C 56.25 -18.375 59.828125 -19.40625 62.578125 -21.46875 C 65.328125 -23.539062 67.335938 -26.613281 68.609375 -30.6875 C 69.890625 -34.769531 70.53125 -39.804688 70.53125 -45.796875 C 70.53125 -51.835938 69.890625 -56.859375 68.609375 -60.859375 C 67.335938 -64.859375 65.3125 -67.863281 62.53125 -69.875 C 59.757812 -71.894531 56.140625 -72.90625 51.671875 -72.90625 C 45.085938 -72.90625 40.3125 -70.644531 37.34375 -66.125 C 34.382812 -61.601562 32.90625 -54.828125 32.90625 -45.796875 Z M 32.90625 -45.796875 "/></g></g></g><g fill="#ffffff" fill-opacity="1"><g transform="translate(579.385317, 159.460458)"><g><path d="M 63.84375 -92.984375 C 74.125 -92.984375 82.429688 -88.984375 88.765625 -80.984375 C 95.109375 -72.984375 98.28125 -61.253906 98.28125 -45.796875 C 98.28125 -35.453125 96.785156 -26.753906 93.796875 -19.703125 C 90.804688 -12.660156 86.671875 -7.34375 81.390625 -3.75 C 76.109375 -0.164062 70.039062 1.625 63.1875 1.625 C 58.78125 1.625 55 1.066406 51.84375 -0.046875 C 48.6875 -1.160156 45.988281 -2.597656 43.75 -4.359375 C 41.519531 -6.128906 39.585938 -8.023438 37.953125 -10.046875 L 36.65625 -10.046875 C 37.09375 -7.867188 37.414062 -5.632812 37.625 -3.34375 C 37.84375 -1.0625 37.953125 1.164062 37.953125 3.34375 L 37.953125 40.171875 L 13.0625 40.171875 L 13.0625 -91.265625 L 33.3125 -91.265625 L 36.8125 -79.4375 L 37.953125 -79.4375 C 39.585938 -81.882812 41.570312 -84.140625 43.90625 -86.203125 C 46.25 -88.273438 49.066406 -89.921875 52.359375 -91.140625 C 55.660156 -92.367188 59.488281 -92.984375 63.84375 -92.984375 Z M 55.84375 -73.0625 C 51.488281 -73.0625 48.03125 -72.160156 45.46875 -70.359375 C 42.914062 -68.566406 41.050781 -65.875 39.875 -62.28125 C 38.707031 -58.695312 38.066406 -54.15625 37.953125 -48.65625 L 37.953125 -45.953125 C 37.953125 -40.078125 38.507812 -35.097656 39.625 -31.015625 C 40.75 -26.941406 42.628906 -23.84375 45.265625 -21.71875 C 47.898438 -19.59375 51.535156 -18.53125 56.171875 -18.53125 C 59.972656 -18.53125 63.097656 -19.59375 65.546875 -21.71875 C 67.992188 -23.84375 69.832031 -26.957031 71.0625 -31.0625 C 72.289062 -35.164062 72.90625 -40.1875 72.90625 -46.125 C 72.90625 -55.050781 71.515625 -61.769531 68.734375 -66.28125 C 65.960938 -70.800781 61.664062 -73.0625 55.84375 -73.0625 Z M 55.84375 -73.0625 "/></g></g></g><g fill="#ffffff" fill-opacity="1"><g transform="translate(685.179595, 159.460458)"><g><path d="M 96 -45.796875 C 96 -38.179688 94.976562 -31.429688 92.9375 -25.546875 C 90.894531 -19.671875 87.925781 -14.707031 84.03125 -10.65625 C 80.144531 -6.601562 75.46875 -3.539062 70 -1.46875 C 64.53125 0.59375 58.367188 1.625 51.515625 1.625 C 45.085938 1.625 39.191406 0.59375 33.828125 -1.46875 C 28.472656 -3.539062 23.820312 -6.601562 19.875 -10.65625 C 15.925781 -14.707031 12.878906 -19.671875 10.734375 -25.546875 C 8.585938 -31.429688 7.515625 -38.179688 7.515625 -45.796875 C 7.515625 -55.921875 9.304688 -64.492188 12.890625 -71.515625 C 16.484375 -78.535156 21.597656 -83.867188 28.234375 -87.515625 C 34.878906 -91.160156 42.800781 -92.984375 52 -92.984375 C 60.539062 -92.984375 68.117188 -91.160156 74.734375 -87.515625 C 81.347656 -83.867188 86.546875 -78.535156 90.328125 -71.515625 C 94.109375 -64.492188 96 -55.921875 96 -45.796875 Z M 32.90625 -45.796875 C 32.90625 -39.804688 33.554688 -34.769531 34.859375 -30.6875 C 36.160156 -26.613281 38.195312 -23.539062 40.96875 -21.46875 C 43.75 -19.40625 47.375 -18.375 51.84375 -18.375 C 56.25 -18.375 59.828125 -19.40625 62.578125 -21.46875 C 65.328125 -23.539062 67.335938 -26.613281 68.609375 -30.6875 C 69.890625 -34.769531 70.53125 -39.804688 70.53125 -45.796875 C 70.53125 -51.835938 69.890625 -56.859375 68.609375 -60.859375 C 67.335938 -64.859375 65.3125 -67.863281 62.53125 -69.875 C 59.757812 -71.894531 56.140625 -72.90625 51.671875 -72.90625 C 45.085938 -72.90625 40.3125 -70.644531 37.34375 -66.125 C 34.382812 -61.601562 32.90625 -54.828125 32.90625 -45.796875 Z M 32.90625 -45.796875 "/></g></g></g><g fill="#ffffff" fill-opacity="1"><g transform="translate(788.688167, 159.460458)"><g><path d="M 64 -92.984375 C 65.25 -92.984375 66.703125 -92.914062 68.359375 -92.78125 C 70.023438 -92.644531 71.375 -92.46875 72.40625 -92.25 L 70.53125 -68.90625 C 69.71875 -69.175781 68.5625 -69.378906 67.0625 -69.515625 C 65.5625 -69.648438 64.269531 -69.71875 63.1875 -69.71875 C 59.976562 -69.71875 56.863281 -69.304688 53.84375 -68.484375 C 50.820312 -67.671875 48.113281 -66.351562 45.71875 -64.53125 C 43.320312 -62.707031 41.425781 -60.3125 40.03125 -57.34375 C 38.644531 -54.382812 37.953125 -50.753906 37.953125 -46.453125 L 37.953125 0 L 13.0625 0 L 13.0625 -91.265625 L 31.921875 -91.265625 L 35.59375 -75.921875 L 36.8125 -75.921875 C 38.613281 -79.023438 40.859375 -81.867188 43.546875 -84.453125 C 46.242188 -87.035156 49.316406 -89.101562 52.765625 -90.65625 C 56.222656 -92.207031 59.96875 -92.984375 64 -92.984375 Z M 64 -92.984375 "/></g></g></g><g fill="#ffffff" fill-opacity="1"><g transform="translate(864.605331, 159.460458)"><g><path d="M 51.515625 -18.203125 C 54.234375 -18.203125 56.882812 -18.472656 59.46875 -19.015625 C 62.050781 -19.566406 64.625 -20.25 67.1875 -21.0625 L 67.1875 -2.53125 C 64.519531 -1.332031 61.210938 -0.34375 57.265625 0.4375 C 53.316406 1.226562 49.003906 1.625 44.328125 1.625 C 38.890625 1.625 34.003906 0.742188 29.671875 -1.015625 C 25.347656 -2.785156 21.945312 -5.859375 19.46875 -10.234375 C 16.988281 -14.617188 15.75 -20.734375 15.75 -28.578125 L 15.75 -72.578125 L 3.84375 -72.578125 L 3.84375 -83.109375 L 17.546875 -91.4375 L 24.734375 -110.703125 L 40.65625 -110.703125 L 40.65625 -91.265625 L 66.203125 -91.265625 L 66.203125 -72.578125 L 40.65625 -72.578125 L 40.65625 -28.578125 C 40.65625 -25.085938 41.644531 -22.484375 43.625 -20.765625 C 45.613281 -19.054688 48.242188 -18.203125 51.515625 -18.203125 Z M 51.515625 -18.203125 "/></g></g></g><g fill="#ffffff" fill-opacity="1"><g transform="translate(937.17562, 159.460458)"><g><path d="M 37.953125 -91.265625 L 37.953125 0 L 13.0625 0 L 13.0625 -91.265625 Z M 25.546875 -127.015625 C 29.253906 -127.015625 32.441406 -126.15625 35.109375 -124.4375 C 37.773438 -122.726562 39.109375 -119.535156 39.109375 -114.859375 C 39.109375 -110.234375 37.773438 -107.035156 35.109375 -105.265625 C 32.441406 -103.492188 29.253906 -102.609375 25.546875 -102.609375 C 21.796875 -102.609375 18.597656 -103.492188 15.953125 -105.265625 C 13.316406 -107.035156 12 -110.234375 12 -114.859375 C 12 -119.535156 13.316406 -122.726562 15.953125 -124.4375 C 18.597656 -126.15625 21.796875 -127.015625 25.546875 -127.015625 Z M 25.546875 -127.015625 "/></g></g></g><g fill="#ffffff" fill-opacity="1"><g transform="translate(988.195224, 159.460458)"><g><path d="M 96 -45.796875 C 96 -38.179688 94.976562 -31.429688 92.9375 -25.546875 C 90.894531 -19.671875 87.925781 -14.707031 84.03125 -10.65625 C 80.144531 -6.601562 75.46875 -3.539062 70 -1.46875 C 64.53125 0.59375 58.367188 1.625 51.515625 1.625 C 45.085938 1.625 39.191406 0.59375 33.828125 -1.46875 C 28.472656 -3.539062 23.820312 -6.601562 19.875 -10.65625 C 15.925781 -14.707031 12.878906 -19.671875 10.734375 -25.546875 C 8.585938 -31.429688 7.515625 -38.179688 7.515625 -45.796875 C 7.515625 -55.921875 9.304688 -64.492188 12.890625 -71.515625 C 16.484375 -78.535156 21.597656 -83.867188 28.234375 -87.515625 C 34.878906 -91.160156 42.800781 -92.984375 52 -92.984375 C 60.539062 -92.984375 68.117188 -91.160156 74.734375 -87.515625 C 81.347656 -83.867188 86.546875 -78.535156 90.328125 -71.515625 C 94.109375 -64.492188 96 -55.921875 96 -45.796875 Z M 32.90625 -45.796875 C 32.90625 -39.804688 33.554688 -34.769531 34.859375 -30.6875 C 36.160156 -26.613281 38.195312 -23.539062 40.96875 -21.46875 C 43.75 -19.40625 47.375 -18.375 51.84375 -18.375 C 56.25 -18.375 59.828125 -19.40625 62.578125 -21.46875 C 65.328125 -23.539062 67.335938 -26.613281 68.609375 -30.6875 C 69.890625 -34.769531 70.53125 -39.804688 70.53125 -45.796875 C 70.53125 -51.835938 69.890625 -56.859375 68.609375 -60.859375 C 67.335938 -64.859375 65.3125 -67.863281 62.53125 -69.875 C 59.757812 -71.894531 56.140625 -72.90625 51.671875 -72.90625 C 45.085938 -72.90625 40.3125 -70.644531 37.34375 -66.125 C 34.382812 -61.601562 32.90625 -54.828125 32.90625 -45.796875 Z M 32.90625 -45.796875 "/></g></g></g><g fill="#ffffff" fill-opacity="1"><g transform="translate(1091.703823, 159.460458)"><g><path d="M 64.90625 -92.984375 C 74.644531 -92.984375 82.476562 -90.328125 88.40625 -85.015625 C 94.34375 -79.710938 97.3125 -71.210938 97.3125 -59.515625 L 97.3125 0 L 72.40625 0 L 72.40625 -53.3125 C 72.40625 -59.84375 71.222656 -64.765625 68.859375 -68.078125 C 66.492188 -71.398438 62.78125 -73.0625 57.71875 -73.0625 C 50.09375 -73.0625 44.890625 -70.472656 42.109375 -65.296875 C 39.335938 -60.128906 37.953125 -52.675781 37.953125 -42.9375 L 37.953125 0 L 13.0625 0 L 13.0625 -91.265625 L 32.078125 -91.265625 L 35.421875 -79.59375 L 36.8125 -79.59375 C 38.769531 -82.75 41.203125 -85.304688 44.109375 -87.265625 C 47.023438 -89.222656 50.265625 -90.664062 53.828125 -91.59375 C 57.398438 -92.519531 61.09375 -92.984375 64.90625 -92.984375 Z M 64.90625 -92.984375 "/></g></g></g><g fill="#ffffff" fill-opacity="1"><g transform="translate(1201.579697, 159.460458)"><g><path d="M 88.078125 0 L 79.4375 -28.40625 L 35.921875 -28.40625 L 27.265625 0 L 0 0 L 42.125 -119.84375 L 73.0625 -119.84375 L 115.34375 0 Z M 73.390625 -49.640625 L 64.734375 -77.390625 C 64.191406 -79.242188 63.46875 -81.625 62.5625 -84.53125 C 61.664062 -87.445312 60.769531 -90.414062 59.875 -93.4375 C 58.976562 -96.457031 58.257812 -99.082031 57.71875 -101.3125 C 57.175781 -99.082031 56.425781 -96.316406 55.46875 -93.015625 C 54.519531 -89.722656 53.609375 -86.609375 52.734375 -83.671875 C 51.867188 -80.734375 51.242188 -78.640625 50.859375 -77.390625 L 42.28125 -49.640625 Z M 73.390625 -49.640625 "/></g></g></g><g fill="#ffffff" fill-opacity="1"><g transform="translate(1316.924886, 159.460458)"><g><path d="M 15.015625 0 L 15.015625 -119.34375 L 40.328125 -119.34375 L 40.328125 0 Z M 15.015625 0 "/></g></g></g></svg>